<svg xmlns="http://www.w3.org/2000/svg" xmlns:xlink="http://www.w3.org/1999/xlink" width="500" zoomAndPan="magnify" viewBox="0 0 375 374.999991" height="500" preserveAspectRatio="xMidYMid meet" version="1.0"><defs><g/><clipPath id="d4c689dc10"><path d="M 114.609375 37.5 L 260.109375 37.5 L 260.109375 249.75 L 114.609375 249.75 Z M 114.609375 37.5 " clip-rule="nonzero"/></clipPath><clipPath id="75d6026662"><rect x="0" width="161" y="0" height="52"/></clipPath><clipPath id="72177f5111"><rect x="0" width="139" y="0" height="26"/></clipPath></defs><rect x="-37.5" width="450" fill="#ffffff" y="-37.499999" height="449.999989" fill-opacity="1"/><rect x="-37.5" width="450" fill="#ffffff" y="-37.499999" height="449.999989" fill-opacity="1"/><g clip-path="url(#d4c689dc10)"><path fill="#ffffff" d="M 188.613281 117.445312 C 187.171875 105.453125 185.285156 93.523438 183.414062 81.59375 C 182.132812 73.425781 180.382812 64.996094 180.410156 56.695312 C 180.414062 55.273438 180.34375 52.851562 181.257812 51.9375 C 181.246094 51.949219 181.238281 51.964844 181.882812 52.070312 C 188.3125 53.09375 195.359375 59.59375 199.757812 63.945312 C 209.183594 73.265625 215.214844 84.867188 214.902344 98.378906 C 214.652344 109.023438 207.035156 119.554688 215.179688 128.824219 C 217.285156 131.222656 219.941406 133.191406 221.71875 135.867188 C 223.132812 138.007812 224.273438 140.28125 221.605469 142.636719 C 220.664062 143.46875 218.871094 143.648438 217.75 144.308594 C 212.300781 147.515625 217.199219 152.535156 213.664062 156.757812 C 212.707031 157.898438 211.066406 158.144531 210.90625 159.933594 C 210.851562 160.535156 211.085938 160.953125 211.195312 161.488281 C 211.46875 161.84375 211.742188 162.191406 212.023438 162.535156 C 212.417969 163.742188 212.214844 164.785156 211.40625 165.664062 C 210.976562 167.078125 210.539062 166.933594 210.234375 168.5625 C 209.90625 170.320312 210.382812 172.011719 210.363281 173.765625 C 210.308594 178.367188 207.042969 181.324219 202.636719 182.203125 C 198.378906 183.054688 194.179688 181.996094 189.964844 180.988281 C 192.59375 159.429688 190.898438 136.449219 188.613281 117.445312 Z M 257.542969 247.027344 L 146.9375 247.027344 C 174.269531 236.597656 185.75 211.464844 189.628906 183.546875 C 197.359375 185.203125 205.25 187.410156 210.925781 180.589844 C 212.203125 179.058594 212.933594 177.367188 213.175781 175.382812 C 213.371094 173.742188 212.8125 172.128906 212.949219 170.515625 C 213.207031 167.519531 214.269531 167.257812 215.042969 164.980469 C 215.601562 163.34375 215.160156 163.097656 214.933594 161.53125 C 214.632812 159.4375 213.03125 162.1875 215.097656 159.207031 C 215.605469 158.472656 216.769531 158.171875 217.320312 157.367188 C 218.253906 156.011719 218.292969 154.6875 218.121094 153.101562 C 217.863281 150.722656 216.535156 149.121094 219.183594 146.757812 C 219.757812 146.242188 221.066406 145.984375 221.753906 145.667969 C 225.105469 144.132812 226.867188 141.851562 225.882812 138.039062 C 224.765625 133.714844 220.925781 130.835938 218.039062 127.734375 C 215.375 124.878906 213.707031 122.070312 213.992188 117.992188 C 214.273438 113.925781 216.117188 110.046875 216.898438 106.066406 C 219.050781 95.089844 217.027344 83.359375 211.316406 73.738281 C 205.78125 64.410156 196.839844 55.960938 187.0625 51.207031 C 184.8125 50.113281 181.308594 47.824219 179.058594 50.132812 C 175.835938 53.4375 177.804688 61.894531 178.269531 65.777344 C 179.503906 76.035156 181.320312 86.21875 182.871094 96.429688 C 187.066406 124.035156 190.527344 152.40625 187.324219 180.304688 C 187.320312 180.332031 187.320312 180.355469 187.3125 180.382812 C 184.632812 179.808594 181.941406 179.417969 179.214844 179.714844 C 174.273438 180.253906 170.039062 183.007812 166.960938 186.824219 C 163.160156 191.542969 161.558594 197.457031 160.902344 203.386719 C 160.191406 209.800781 159.4375 217.316406 162.667969 223.160156 C 163.554688 224.761719 166.003906 223.332031 165.121094 221.730469 C 161.726562 215.589844 162.976562 205.378906 164.511719 198.78125 C 166.136719 191.777344 170.46875 184.429688 178.019531 182.765625 C 180.828125 182.148438 183.875 182.445312 186.988281 183.015625 C 185.167969 196.765625 181.398438 210.601562 173.738281 222.269531 C 165.230469 235.230469 152.238281 243.46875 137.277344 247.027344 L 117.449219 247.027344 L 117.449219 40.398438 L 257.542969 40.398438 Z M 114.609375 37.558594 L 114.609375 249.867188 L 260.378906 249.867188 L 260.378906 37.558594 L 114.609375 37.558594 " fill-opacity="1" fill-rule="nonzero"/></g><g transform="matrix(1, 0, 0, 1, 109, 256)"><g clip-path="url(#75d6026662)"><g fill="#ffffff" fill-opacity="1"><g transform="translate(0.802655, 42.053292)"><g><path d="M 13.65625 0 L 4.171875 -29.96875 L 7.140625 -29.96875 L 15.984375 -2 L 24.796875 -29.96875 L 25.96875 -29.96875 L 16.609375 0 Z M 13.65625 0 "/></g></g></g><g fill="#ffffff" fill-opacity="1"><g transform="translate(34.287771, 42.053292)"><g><path d="M 4.171875 0 L 13.359375 -29.9375 L 13.359375 -29.96875 L 16.328125 -29.96875 L 25.546875 0 L 22.59375 0 L 20.25 -7.6875 L 7.71875 -7.6875 L 5.34375 0 Z M 8.0625 -8.8125 L 19.875 -8.8125 L 13.984375 -28.015625 Z M 8.0625 -8.8125 "/></g></g></g><g fill="#ffffff" fill-opacity="1"><g transform="translate(67.397126, 42.053292)"><g><path d="M 4.171875 0 L 4.171875 -29.96875 L 7.015625 -29.96875 L 7.015625 -1.125 L 21.953125 -1.125 L 21.953125 0 Z M 4.171875 0 "/></g></g></g><g fill="#ffffff" fill-opacity="1"><g transform="translate(96.87414, 42.053292)"><g><path d="M 4.171875 0 L 4.171875 -29.96875 L 21.125 -29.96875 L 21.125 -28.84375 L 7.015625 -28.84375 L 7.015625 -15.734375 L 18.328125 -15.734375 L 18.328125 -14.609375 L 7.015625 -14.609375 L 7.015625 -1.125 L 22 -1.125 L 22 0 Z M 4.171875 0 "/></g></g></g><g fill="#ffffff" fill-opacity="1"><g transform="translate(126.392896, 42.053292)"><g><path d="M 4.171875 0 L 13.359375 -29.9375 L 13.359375 -29.96875 L 16.328125 -29.96875 L 25.546875 0 L 22.59375 0 L 20.25 -7.6875 L 7.71875 -7.6875 L 5.34375 0 Z M 8.0625 -8.8125 L 19.875 -8.8125 L 13.984375 -28.015625 Z M 8.0625 -8.8125 "/></g></g></g></g></g><g transform="matrix(1, 0, 0, 1, 120, 303)"><g clip-path="url(#72177f5111)"><g fill="#ffffff" fill-opacity="1"><g transform="translate(1.21653, 19.513023)"><g><path d="M 9.78125 0 L 8.1875 -4.0625 L 3.078125 -4.0625 L 1.5 0 L 0 0 L 5.046875 -12.828125 L 6.296875 -12.828125 L 11.328125 0 Z M 7.734375 -5.40625 L 6.25 -9.359375 C 6.050781 -9.859375 5.851562 -10.472656 5.65625 -11.203125 C 5.519531 -10.640625 5.335938 -10.023438 5.109375 -9.359375 L 3.59375 -5.40625 Z M 7.734375 -5.40625 "/></g></g></g><g fill="#ffffff" fill-opacity="1"><g transform="translate(16.139599, 19.513023)"><g><path d="M 8.875 0 L 1.75 0 L 1.75 -12.765625 L 8.875 -12.765625 L 8.875 -11.453125 L 3.234375 -11.453125 L 3.234375 -7.34375 L 8.53125 -7.34375 L 8.53125 -6.03125 L 3.234375 -6.03125 L 3.234375 -1.328125 L 8.875 -1.328125 Z M 8.875 0 "/></g></g></g><g fill="#ffffff" fill-opacity="1"><g transform="translate(29.690654, 19.513023)"><g><path d="M 8.96875 -3.390625 C 8.96875 -2.273438 8.554688 -1.398438 7.734375 -0.765625 C 6.921875 -0.140625 5.816406 0.171875 4.421875 0.171875 C 2.910156 0.171875 1.742188 -0.0195312 0.921875 -0.40625 L 0.921875 -1.84375 C 1.453125 -1.625 2.023438 -1.445312 2.640625 -1.3125 C 3.253906 -1.1875 3.863281 -1.125 4.46875 -1.125 C 5.457031 -1.125 6.203125 -1.3125 6.703125 -1.6875 C 7.203125 -2.0625 7.453125 -2.585938 7.453125 -3.265625 C 7.453125 -3.703125 7.363281 -4.0625 7.1875 -4.34375 C 7.007812 -4.625 6.710938 -4.882812 6.296875 -5.125 C 5.878906 -5.363281 5.25 -5.632812 4.40625 -5.9375 C 3.21875 -6.363281 2.367188 -6.867188 1.859375 -7.453125 C 1.347656 -8.035156 1.09375 -8.796875 1.09375 -9.734375 C 1.09375 -10.710938 1.460938 -11.492188 2.203125 -12.078125 C 2.941406 -12.660156 3.921875 -12.953125 5.140625 -12.953125 C 6.410156 -12.953125 7.578125 -12.71875 8.640625 -12.25 L 8.171875 -10.96875 C 7.117188 -11.40625 6.097656 -11.625 5.109375 -11.625 C 4.316406 -11.625 3.695312 -11.453125 3.25 -11.109375 C 2.8125 -10.773438 2.59375 -10.3125 2.59375 -9.71875 C 2.59375 -9.269531 2.671875 -8.90625 2.828125 -8.625 C 2.992188 -8.34375 3.269531 -8.082031 3.65625 -7.84375 C 4.050781 -7.613281 4.644531 -7.351562 5.4375 -7.0625 C 6.78125 -6.582031 7.703125 -6.066406 8.203125 -5.515625 C 8.710938 -4.972656 8.96875 -4.265625 8.96875 -3.390625 Z M 8.96875 -3.390625 "/></g></g></g><g fill="#ffffff" fill-opacity="1"><g transform="translate(43.110625, 19.513023)"><g><path d="M 5.6875 0 L 4.203125 0 L 4.203125 -11.453125 L 0.15625 -11.453125 L 0.15625 -12.765625 L 9.734375 -12.765625 L 9.734375 -11.453125 L 5.6875 -11.453125 Z M 5.6875 0 "/></g></g></g><g fill="#ffffff" fill-opacity="1"><g transform="translate(56.609247, 19.513023)"><g><path d="M 11.453125 0 L 9.96875 0 L 9.96875 -6.015625 L 3.234375 -6.015625 L 3.234375 0 L 1.75 0 L 1.75 -12.765625 L 3.234375 -12.765625 L 3.234375 -7.34375 L 9.96875 -7.34375 L 9.96875 -12.765625 L 11.453125 -12.765625 Z M 11.453125 0 "/></g></g></g><g fill="#ffffff" fill-opacity="1"><g transform="translate(73.411189, 19.513023)"><g><path d="M 8.875 0 L 1.75 0 L 1.75 -12.765625 L 8.875 -12.765625 L 8.875 -11.453125 L 3.234375 -11.453125 L 3.234375 -7.34375 L 8.53125 -7.34375 L 8.53125 -6.03125 L 3.234375 -6.03125 L 3.234375 -1.328125 L 8.875 -1.328125 Z M 8.875 0 "/></g></g></g><g fill="#ffffff" fill-opacity="1"><g transform="translate(86.962244, 19.513023)"><g><path d="M 5.6875 0 L 4.203125 0 L 4.203125 -11.453125 L 0.15625 -11.453125 L 0.15625 -12.765625 L 9.734375 -12.765625 L 9.734375 -11.453125 L 5.6875 -11.453125 Z M 5.6875 0 "/></g></g></g><g fill="#ffffff" fill-opacity="1"><g transform="translate(100.460865, 19.513023)"><g><path d="M 1.75 0 L 1.75 -12.765625 L 3.234375 -12.765625 L 3.234375 0 Z M 1.75 0 "/></g></g></g><g fill="#ffffff" fill-opacity="1"><g transform="translate(109.048201, 19.513023)"><g><path d="M 7.21875 -11.625 C 5.820312 -11.625 4.71875 -11.15625 3.90625 -10.21875 C 3.09375 -9.289062 2.6875 -8.015625 2.6875 -6.390625 C 2.6875 -4.710938 3.078125 -3.414062 3.859375 -2.5 C 4.640625 -1.59375 5.753906 -1.140625 7.203125 -1.140625 C 8.097656 -1.140625 9.113281 -1.300781 10.25 -1.625 L 10.25 -0.328125 C 9.363281 0.00390625 8.273438 0.171875 6.984375 0.171875 C 5.097656 0.171875 3.644531 -0.394531 2.625 -1.53125 C 1.601562 -2.675781 1.09375 -4.300781 1.09375 -6.40625 C 1.09375 -7.71875 1.335938 -8.867188 1.828125 -9.859375 C 2.316406 -10.847656 3.023438 -11.609375 3.953125 -12.140625 C 4.890625 -12.679688 5.984375 -12.953125 7.234375 -12.953125 C 8.578125 -12.953125 9.75 -12.707031 10.75 -12.21875 L 10.125 -10.953125 C 9.15625 -11.398438 8.1875 -11.625 7.21875 -11.625 Z M 7.21875 -11.625 "/></g></g></g><g fill="#ffffff" fill-opacity="1"><g transform="translate(123.936314, 19.513023)"><g><path d="M 8.96875 -3.390625 C 8.96875 -2.273438 8.554688 -1.398438 7.734375 -0.765625 C 6.921875 -0.140625 5.816406 0.171875 4.421875 0.171875 C 2.910156 0.171875 1.742188 -0.0195312 0.921875 -0.40625 L 0.921875 -1.84375 C 1.453125 -1.625 2.023438 -1.445312 2.640625 -1.3125 C 3.253906 -1.1875 3.863281 -1.125 4.46875 -1.125 C 5.457031 -1.125 6.203125 -1.3125 6.703125 -1.6875 C 7.203125 -2.0625 7.453125 -2.585938 7.453125 -3.265625 C 7.453125 -3.703125 7.363281 -4.0625 7.1875 -4.34375 C 7.007812 -4.625 6.710938 -4.882812 6.296875 -5.125 C 5.878906 -5.363281 5.25 -5.632812 4.40625 -5.9375 C 3.21875 -6.363281 2.367188 -6.867188 1.859375 -7.453125 C 1.347656 -8.035156 1.09375 -8.796875 1.09375 -9.734375 C 1.09375 -10.710938 1.460938 -11.492188 2.203125 -12.078125 C 2.941406 -12.660156 3.921875 -12.953125 5.140625 -12.953125 C 6.410156 -12.953125 7.578125 -12.71875 8.640625 -12.25 L 8.171875 -10.96875 C 7.117188 -11.40625 6.097656 -11.625 5.109375 -11.625 C 4.316406 -11.625 3.695312 -11.453125 3.25 -11.109375 C 2.8125 -10.773438 2.59375 -10.3125 2.59375 -9.71875 C 2.59375 -9.269531 2.671875 -8.90625 2.828125 -8.625 C 2.992188 -8.34375 3.269531 -8.082031 3.65625 -7.84375 C 4.050781 -7.613281 4.644531 -7.351562 5.4375 -7.0625 C 6.78125 -6.582031 7.703125 -6.066406 8.203125 -5.515625 C 8.710938 -4.972656 8.96875 -4.265625 8.96875 -3.390625 Z M 8.96875 -3.390625 "/></g></g></g></g></g></svg>