<?xml version="1.0" encoding="utf-8"?>
<!-- Generator: Adobe Illustrator 30.1.0, SVG Export Plug-In . SVG Version: 9.03 Build 0)  -->
<svg version="1.0" id="Capa_1" xmlns="http://www.w3.org/2000/svg" xmlns:xlink="http://www.w3.org/1999/xlink" x="0px" y="0px"
	 viewBox="0 0 500 500" style="enable-background:new 0 0 500 500;" xml:space="preserve">
<style type="text/css">
	.st0{clip-path:url(#SVGID_00000008857784606747033040000003313505332801039007_);}
	.st1{fill:#004AAD;}
	.st2{clip-path:url(#SVGID_00000008847655498848065800000015957269975431657403_);}
	.st3{clip-path:url(#SVGID_00000124145990273500727080000016989125586937720487_);}
</style>
<g>
	<defs>
		<rect id="SVGID_1_" x="152.8" y="50" width="194" height="283"/>
	</defs>
	<clipPath id="SVGID_00000176761371481526777290000015899140464233396102_">
		<use xlink:href="#SVGID_1_"  style="overflow:visible;"/>
	</clipPath>
	<g style="clip-path:url(#SVGID_00000176761371481526777290000015899140464233396102_);">
		<path class="st1" d="M251.5,156.6c-1.9-16-4.4-31.9-6.9-47.8c-1.7-10.9-4-22.1-4-33.2c0-1.9-0.1-5.1,1.1-6.3c0,0,0,0,0.8,0.2
			c8.6,1.4,18,10,23.8,15.8c12.6,12.4,20.6,27.9,20.2,45.9c-0.3,14.2-10.5,28.2,0.4,40.6c2.8,3.2,6.3,5.8,8.7,9.4
			c1.9,2.9,3.4,5.9-0.2,9c-1.3,1.1-3.6,1.3-5.1,2.2c-7.3,4.3-0.7,11-5.4,16.6c-1.3,1.5-3.5,1.8-3.7,4.2c-0.1,0.8,0.2,1.4,0.4,2.1
			c0.4,0.5,0.7,0.9,1.1,1.4c0.5,1.6,0.3,3-0.8,4.2c-0.6,1.9-1.2,1.7-1.6,3.9c-0.4,2.3,0.2,4.6,0.2,6.9c-0.1,6.1-4.4,10.1-10.3,11.2
			c-5.7,1.1-11.3-0.3-16.9-1.6C256.8,212.6,254.5,181.9,251.5,156.6z M343.4,329.4H195.9c36.4-13.9,51.8-47.4,56.9-84.6
			c10.3,2.2,20.8,5.2,28.4-3.9c1.7-2,2.7-4.3,3-6.9c0.3-2.2-0.5-4.3-0.3-6.5c0.3-4,1.8-4.3,2.8-7.4c0.7-2.2,0.2-2.5-0.1-4.6
			c-0.4-2.8-2.5,0.9,0.2-3.1c0.7-1,2.2-1.4,3-2.5c1.2-1.8,1.3-3.6,1.1-5.7c-0.3-3.2-2.1-5.3,1.4-8.5c0.8-0.7,2.5-1,3.4-1.5
			c4.5-2,6.8-5.1,5.5-10.2c-1.5-5.8-6.6-9.6-10.5-13.7c-3.6-3.8-5.8-7.6-5.4-13c0.4-5.4,2.8-10.6,3.9-15.9
			c2.9-14.6,0.2-30.3-7.4-43.1c-7.4-12.4-19.3-23.7-32.3-30c-3-1.5-7.7-4.5-10.7-1.4c-4.3,4.4-1.7,15.7-1.1,20.9
			c1.6,13.7,4.1,27.3,6.1,40.9c5.6,36.8,10.2,74.6,5.9,111.8c0,0,0,0.1,0,0.1c-3.6-0.8-7.2-1.3-10.8-0.9c-6.6,0.7-12.2,4.4-16.3,9.5
			c-5.1,6.3-7.2,14.2-8.1,22.1c-0.9,8.6-2,18.6,2.4,26.4c1.2,2.1,4.4,0.2,3.3-1.9c-4.5-8.2-2.9-21.8-0.8-30.6
			c2.2-9.3,7.9-19.1,18-21.4c3.7-0.8,7.8-0.4,12,0.3c-2.4,18.3-7.5,36.8-17.7,52.3c-11.3,17.3-28.7,28.3-48.6,33h-26.4V53.9h186.8
			V329.4z M152.8,50.1v283.1h194.4V50.1H152.8"/>
	</g>
</g>
<g transform="matrix(1, 0, 0, 1, 109, 256)">
	<g>
		<defs>
			<rect id="SVGID_00000170248197170865747670000013658080025712658322_" x="36.3" y="85.3" width="214.7" height="69.3"/>
		</defs>
		<clipPath id="SVGID_00000031911407796819332650000016382488413123120779_">
			<use xlink:href="#SVGID_00000170248197170865747670000013658080025712658322_"  style="overflow:visible;"/>
		</clipPath>
		<g style="clip-path:url(#SVGID_00000031911407796819332650000016382488413123120779_);">
			<g>
				<g transform="translate(0.802655, 42.053292)">
					<g>
						<path class="st1" d="M54.8,99.4l-12.6-40h4l11.8,37.3l11.8-37.3h1.6l-12.5,40H54.8z"/>
					</g>
				</g>
			</g>
			<g>
				<g transform="translate(34.287771, 42.053292)">
					<g>
						<path class="st1" d="M53.3,99.4l12.3-39.9v0h4l12.3,40h-3.9l-3.1-10.2H58.1l-3.2,10.2H53.3z M58.5,87.6h15.8L66.4,62
							L58.5,87.6z"/>
					</g>
				</g>
			</g>
			<g>
				<g transform="translate(67.397126, 42.053292)">
					<g>
						<path class="st1" d="M64.4,99.4v-40h3.8v38.5h19.9v1.5H64.4z"/>
					</g>
				</g>
			</g>
			<g>
				<g transform="translate(96.87414, 42.053292)">
					<g>
						<path class="st1" d="M74.2,99.4v-40h22.6v1.5H78v17.5h15.1v1.5H78v18h20v1.5H74.2z"/>
					</g>
				</g>
			</g>
			<g>
				<g transform="translate(126.392896, 42.053292)">
					<g>
						<path class="st1" d="M84,99.4l12.2-39.9v0h4l12.3,40h-3.9l-3.1-10.2H88.8l-3.2,10.2H84z M89.2,87.6H105L97.1,62L89.2,87.6z"/>
					</g>
				</g>
			</g>
		</g>
	</g>
</g>
<g transform="matrix(1, 0, 0, 1, 120, 303)">
	<g>
		<defs>
			<rect id="SVGID_00000075855190784341780940000006986151686753921455_" x="40" y="101" width="185.3" height="34.7"/>
		</defs>
		<clipPath id="SVGID_00000038384608267288141960000017365458697240962489_">
			<use xlink:href="#SVGID_00000075855190784341780940000006986151686753921455_"  style="overflow:visible;"/>
		</clipPath>
		<g style="clip-path:url(#SVGID_00000038384608267288141960000017365458697240962489_);">
			<g>
				<g transform="translate(1.21653, 19.513023)">
					<g>
						<path class="st1" d="M53.4,107.5l-2.1-5.4h-6.8l-2.1,5.4h-2l6.7-17.1h1.7l6.7,17.1H53.4z M50.7,100.3l-2-5.3
							c-0.3-0.7-0.5-1.5-0.8-2.5c-0.2,0.8-0.4,1.6-0.7,2.5l-2,5.3H50.7z"/>
					</g>
				</g>
			</g>
			<g>
				<g transform="translate(16.139599, 19.513023)">
					<g>
						<path class="st1" d="M57.2,107.5h-9.5v-17h9.5v1.8h-7.5v5.5h7.1v1.8h-7.1v6.3h7.5V107.5z"/>
					</g>
				</g>
			</g>
			<g>
				<g transform="translate(29.690654, 19.513023)">
					<g>
						<path class="st1" d="M61.9,103c0,1.5-0.6,2.7-1.6,3.5c-1.1,0.8-2.6,1.2-4.4,1.2c-2,0-3.6-0.3-4.7-0.8V105
							c0.7,0.3,1.5,0.5,2.3,0.7c0.8,0.2,1.6,0.2,2.4,0.2c1.3,0,2.3-0.2,3-0.8s1-1.2,1-2.1c0-0.6-0.1-1.1-0.4-1.4
							c-0.2-0.4-0.6-0.7-1.2-1c-0.6-0.3-1.4-0.7-2.5-1.1c-1.6-0.6-2.7-1.2-3.4-2c-0.7-0.8-1-1.8-1-3c0-1.3,0.5-2.3,1.5-3.1
							c1-0.8,2.3-1.2,3.9-1.2c1.7,0,3.2,0.3,4.7,0.9l-0.6,1.7C59.4,92.3,58,92,56.7,92c-1.1,0-1.9,0.2-2.5,0.7
							c-0.6,0.4-0.9,1.1-0.9,1.9c0,0.6,0.1,1.1,0.3,1.5c0.2,0.4,0.6,0.7,1.1,1c0.5,0.3,1.3,0.7,2.4,1c1.8,0.6,3,1.3,3.7,2.1
							C61.5,100.9,61.9,101.8,61.9,103z"/>
					</g>
				</g>
			</g>
			<g>
				<g transform="translate(43.110625, 19.513023)">
					<g>
						<path class="st1" d="M62,107.5h-2V92.2h-5.4v-1.8h12.8v1.8H62V107.5z"/>
					</g>
				</g>
			</g>
			<g>
				<g transform="translate(56.609247, 19.513023)">
					<g>
						<path class="st1" d="M74.1,107.5h-2v-8h-9v8h-2v-17h2v7.2h9v-7.2h2V107.5z"/>
					</g>
				</g>
			</g>
			<g>
				<g transform="translate(73.411189, 19.513023)">
					<g>
						<path class="st1" d="M76.3,107.5h-9.5v-17h9.5v1.8h-7.5v5.5h7.1v1.8h-7.1v6.3h7.5V107.5z"/>
					</g>
				</g>
			</g>
			<g>
				<g transform="translate(86.962244, 19.513023)">
					<g>
						<path class="st1" d="M76.6,107.5h-2V92.2h-5.4v-1.8H82v1.8h-5.4V107.5z"/>
					</g>
				</g>
			</g>
			<g>
				<g transform="translate(100.460865, 19.513023)">
					<g>
						<path class="st1" d="M75.8,107.5v-17h2v17H75.8z"/>
					</g>
				</g>
			</g>
			<g>
				<g transform="translate(109.048201, 19.513023)">
					<g>
						<path class="st1" d="M86,92c-1.9,0-3.3,0.6-4.4,1.9c-1.1,1.2-1.6,2.9-1.6,5.1c0,2.2,0.5,4,1.6,5.2c1,1.2,2.5,1.8,4.5,1.8
							c1.2,0,2.5-0.2,4.1-0.6v1.7c-1.2,0.4-2.6,0.7-4.4,0.7c-2.5,0-4.5-0.8-5.8-2.3c-1.4-1.5-2-3.7-2-6.5c0-1.8,0.3-3.3,1-4.6
							c0.7-1.3,1.6-2.3,2.8-3c1.2-0.7,2.7-1.1,4.4-1.1c1.8,0,3.4,0.3,4.7,1l-0.8,1.7C88.6,92.3,87.3,92,86,92z"/>
					</g>
				</g>
			</g>
			<g>
				<g transform="translate(123.936314, 19.513023)">
					<g>
						<path class="st1" d="M93.3,103c0,1.5-0.6,2.7-1.6,3.5c-1.1,0.8-2.6,1.2-4.4,1.2c-2,0-3.6-0.3-4.7-0.8V105
							c0.7,0.3,1.5,0.5,2.3,0.7c0.8,0.2,1.6,0.2,2.4,0.2c1.3,0,2.3-0.2,3-0.8s1-1.2,1-2.1c0-0.6-0.1-1.1-0.4-1.4
							c-0.2-0.4-0.6-0.7-1.2-1c-0.6-0.3-1.4-0.7-2.5-1.1c-1.6-0.6-2.7-1.2-3.4-2c-0.7-0.8-1-1.8-1-3c0-1.3,0.5-2.3,1.5-3.1
							c1-0.8,2.3-1.2,3.9-1.2c1.7,0,3.2,0.3,4.7,0.9l-0.6,1.7c-1.4-0.6-2.8-0.9-4.1-0.9c-1.1,0-1.9,0.2-2.5,0.7
							c-0.6,0.4-0.9,1.1-0.9,1.9c0,0.6,0.1,1.1,0.3,1.5c0.2,0.4,0.6,0.7,1.1,1c0.5,0.3,1.3,0.7,2.4,1c1.8,0.6,3,1.3,3.7,2.1
							C92.9,100.9,93.3,101.8,93.3,103z"/>
					</g>
				</g>
			</g>
		</g>
	</g>
</g>
</svg>
