<?xml version="1.0" encoding="UTF-8"?>
<svg id="Capa_2" data-name="Capa 2" xmlns="http://www.w3.org/2000/svg" xmlns:xlink="http://www.w3.org/1999/xlink" viewBox="0 0 214.67 388.67">
  <defs>
    <style>
      .cls-1 {
        fill: none;
      }

      .cls-2 {
        fill: #004aad;
      }

      .cls-3 {
        clip-path: url(#clippath-1);
      }

      .cls-4 {
        clip-path: url(#clippath-2);
      }

      .cls-5 {
        clip-path: url(#clippath);
      }
    </style>
    <clipPath id="clippath">
      <rect class="cls-1" x="7.48" width="194" height="283"/>
    </clipPath>
    <clipPath id="clippath-1">
      <rect class="cls-1" y="291.33" width="214.67" height="69.33"/>
    </clipPath>
    <clipPath id="clippath-2">
      <rect class="cls-1" x="14.67" y="354" width="185.33" height="34.67"/>
    </clipPath>
  </defs>
  <g id="Capa_1-2" data-name="Capa 1">
    <g class="cls-5">
      <path class="cls-2" d="M106.15,106.59c-1.92-15.99-4.44-31.9-6.93-47.8-1.71-10.89-4.04-22.13-4.01-33.2,0-1.9-.09-5.13,1.13-6.34-.02.02-.03.04.83.18,8.57,1.36,17.97,10.03,23.83,15.83,12.57,12.43,20.61,27.9,20.19,45.91-.33,14.19-10.49,28.23.37,40.59,2.81,3.2,6.35,5.82,8.72,9.39,1.89,2.85,3.41,5.89-.15,9.03-1.26,1.11-3.65,1.35-5.14,2.23-7.27,4.28-.73,10.97-5.45,16.6-1.28,1.52-3.46,1.85-3.68,4.23-.07.8.24,1.36.39,2.07.36.47.73.94,1.1,1.4.53,1.61.26,3-.82,4.17-.57,1.89-1.16,1.69-1.56,3.86-.44,2.34.2,4.6.17,6.94-.07,6.14-4.43,10.08-10.3,11.25-5.68,1.14-11.28-.28-16.9-1.62,3.51-28.74,1.24-59.39-1.8-84.72ZM198.06,279.37H50.58c36.44-13.91,51.75-47.42,56.92-84.64,10.31,2.21,20.83,5.15,28.4-3.94,1.7-2.04,2.68-4.3,3-6.94.26-2.19-.48-4.34-.3-6.49.34-3.99,1.76-4.34,2.79-7.38.74-2.18.16-2.51-.15-4.6-.4-2.79-2.54.88.22-3.1.68-.98,2.23-1.38,2.96-2.45,1.24-1.81,1.3-3.57,1.07-5.69-.34-3.17-2.11-5.31,1.42-8.46.77-.69,2.51-1.03,3.43-1.45,4.47-2.05,6.82-5.09,5.51-10.17-1.49-5.77-6.61-9.6-10.46-13.74-3.55-3.81-5.78-7.55-5.4-12.99.38-5.42,2.83-10.59,3.88-15.9,2.87-14.64.17-30.28-7.44-43.1-7.38-12.44-19.3-23.7-32.34-30.04-3-1.46-7.67-4.51-10.67-1.43-4.3,4.41-1.67,15.68-1.05,20.86,1.65,13.68,4.07,27.26,6.14,40.87,5.59,36.81,10.21,74.64,5.94,111.83,0,.04,0,.07-.02.1-3.57-.77-7.16-1.29-10.8-.89-6.59.72-12.23,4.39-16.34,9.48-5.07,6.29-7.2,14.18-8.08,22.08-.95,8.55-1.95,18.57,2.35,26.36,1.18,2.14,4.45.23,3.27-1.91-4.53-8.19-2.86-21.8-.81-30.6,2.17-9.34,7.94-19.14,18.01-21.35,3.74-.82,7.81-.43,11.96.33-2.43,18.33-7.45,36.78-17.67,52.34-11.34,17.28-28.67,28.27-48.61,33.01H11.27V3.86h186.79v275.51ZM7.48.08v283.08h194.36V.08H7.48"/>
    </g>
    <g class="cls-3">
      <g>
        <path class="cls-2" d="M19.28,347.4l-12.65-39.96h3.96l11.79,37.29,11.75-37.29h1.56l-12.48,39.96h-3.94Z"/>
        <path class="cls-2" d="M51.28,347.4l12.25-39.92v-.04h3.96l12.29,39.96h-3.94l-3.13-10.25h-16.71l-3.17,10.25h-1.56ZM56.47,335.65h15.75l-7.85-25.6-7.9,25.6Z"/>
        <path class="cls-2" d="M95.43,347.4v-39.96h3.79v38.46h19.92v1.5h-23.71Z"/>
        <path class="cls-2" d="M134.73,347.4v-39.96h22.6v1.5h-18.81v17.48h15.08v1.5h-15.08v17.98h19.98v1.5h-23.77Z"/>
        <path class="cls-2" d="M174.09,347.4l12.25-39.92v-.04h3.96l12.29,39.96h-3.94l-3.13-10.25h-16.71l-3.17,10.25h-1.56ZM179.27,335.65h15.75l-7.85-25.6-7.9,25.6Z"/>
      </g>
    </g>
    <g class="cls-4">
      <g>
        <path class="cls-2" d="M29.33,380.02l-2.13-5.42h-6.81l-2.1,5.42h-2l6.73-17.1h1.67l6.71,17.1h-2.06ZM26.6,372.81l-1.98-5.27c-.27-.67-.53-1.48-.79-2.46-.18.75-.43,1.57-.73,2.46l-2.02,5.27h5.52Z"/>
        <path class="cls-2" d="M48.02,380.02h-9.5v-17.02h9.5v1.75h-7.52v5.48h7.06v1.75h-7.06v6.27h7.52v1.77Z"/>
        <path class="cls-2" d="M66.21,375.5c0,1.49-.55,2.66-1.65,3.5-1.08.83-2.56,1.25-4.42,1.25-2.02,0-3.57-.26-4.67-.77v-1.92c.71.29,1.47.53,2.29.71.82.17,1.63.25,2.44.25,1.32,0,2.31-.25,2.98-.75s1-1.2,1-2.1c0-.58-.12-1.06-.35-1.44-.24-.38-.64-.72-1.19-1.04-.56-.32-1.4-.68-2.52-1.08-1.58-.57-2.72-1.24-3.4-2.02-.68-.78-1.02-1.79-1.02-3.04s.49-2.34,1.48-3.13c.98-.78,2.29-1.17,3.92-1.17s3.25.31,4.67.94l-.63,1.71c-1.41-.58-2.77-.88-4.08-.88-1.06,0-1.89.23-2.48.69-.58.45-.88,1.06-.88,1.85,0,.6.1,1.08.31,1.46.22.38.59.72,1.1,1.04.53.31,1.32.66,2.38,1.04,1.79.64,3.02,1.33,3.69,2.06.68.72,1.02,1.67,1.02,2.83Z"/>
        <path class="cls-2" d="M79.73,380.02h-1.98v-15.27h-5.4v-1.75h12.77v1.75h-5.4v15.27Z"/>
        <path class="cls-2" d="M105.42,380.02h-1.98v-8.02h-8.98v8.02h-1.98v-17.02h1.98v7.23h8.98v-7.23h1.98v17.02Z"/>
        <path class="cls-2" d="M124.38,380.02h-9.5v-17.02h9.5v1.75h-7.52v5.48h7.06v1.75h-7.06v6.27h7.52v1.77Z"/>
        <path class="cls-2" d="M138.2,380.02h-1.98v-15.27h-5.4v-1.75h12.77v1.75h-5.4v15.27Z"/>
        <path class="cls-2" d="M150.95,380.02v-17.02h1.98v17.02h-1.98Z"/>
        <path class="cls-2" d="M169.69,364.52c-1.86,0-3.33.63-4.42,1.88-1.08,1.24-1.63,2.94-1.63,5.1s.52,3.97,1.56,5.19c1.04,1.21,2.53,1.81,4.46,1.81,1.19,0,2.55-.21,4.06-.65v1.73c-1.18.44-2.64.67-4.35.67-2.52,0-4.45-.76-5.81-2.27-1.36-1.53-2.04-3.69-2.04-6.5,0-1.75.32-3.28.98-4.6.65-1.32,1.59-2.33,2.83-3.04,1.25-.72,2.71-1.08,4.38-1.08,1.79,0,3.35.33,4.69.98l-.83,1.69c-1.29-.59-2.58-.9-3.88-.9Z"/>
        <path class="cls-2" d="M191.87,375.5c0,1.49-.55,2.66-1.65,3.5-1.08.83-2.56,1.25-4.42,1.25-2.02,0-3.57-.26-4.67-.77v-1.92c.71.29,1.47.53,2.29.71.82.17,1.63.25,2.44.25,1.32,0,2.31-.25,2.98-.75s1-1.2,1-2.1c0-.58-.12-1.06-.35-1.44-.24-.38-.64-.72-1.19-1.04-.56-.32-1.4-.68-2.52-1.08-1.58-.57-2.72-1.24-3.4-2.02-.68-.78-1.02-1.79-1.02-3.04s.49-2.34,1.48-3.13c.98-.78,2.29-1.17,3.92-1.17s3.25.31,4.67.94l-.63,1.71c-1.41-.58-2.77-.88-4.08-.88-1.06,0-1.89.23-2.48.69-.58.45-.88,1.06-.88,1.85,0,.6.1,1.08.31,1.46.22.38.59.72,1.1,1.04.53.31,1.32.66,2.38,1.04,1.79.64,3.02,1.33,3.69,2.06.68.72,1.02,1.67,1.02,2.83Z"/>
      </g>
    </g>
  </g>
</svg>