<?xml version="1.0" encoding="UTF-8"?>
<svg id="Capa_2" data-name="Capa 2" xmlns="http://www.w3.org/2000/svg" xmlns:xlink="http://www.w3.org/1999/xlink" viewBox="0 0 211.5 375.14">
  <defs>
    <style>
      .cls-1 {
        fill: none;
      }

      .cls-2 {
        fill: #004aad;
      }

      .cls-3 {
        clip-path: url(#clippath-1);
      }

      .cls-4 {
        clip-path: url(#clippath);
      }
    </style>
    <clipPath id="clippath">
      <rect class="cls-1" x="5.75" width="194" height="283"/>
    </clipPath>
    <clipPath id="clippath-1">
      <rect class="cls-1" y="291.85" width="211.5" height="68.31"/>
    </clipPath>
  </defs>
  <g id="Capa_1-2" data-name="Capa 1">
    <g class="cls-4">
      <path class="cls-2" d="M104.42,106.59c-1.92-15.99-4.44-31.9-6.93-47.8-1.71-10.89-4.04-22.13-4.01-33.2,0-1.9-.09-5.13,1.13-6.34-.02.02-.03.04.83.18,8.57,1.36,17.97,10.03,23.83,15.83,12.57,12.43,20.61,27.9,20.19,45.91-.33,14.19-10.49,28.23.37,40.59,2.81,3.2,6.35,5.82,8.72,9.39,1.89,2.85,3.41,5.89-.15,9.03-1.26,1.11-3.65,1.35-5.14,2.23-7.27,4.28-.73,10.97-5.45,16.6-1.28,1.52-3.46,1.85-3.68,4.23-.07.8.24,1.36.39,2.07.36.47.73.94,1.1,1.4.53,1.61.26,3-.82,4.17-.57,1.89-1.16,1.69-1.56,3.86-.44,2.34.2,4.6.17,6.94-.07,6.14-4.43,10.08-10.3,11.25-5.68,1.14-11.28-.28-16.9-1.62,3.51-28.74,1.24-59.39-1.8-84.72ZM196.33,279.37H48.86c36.44-13.91,51.75-47.42,56.92-84.64,10.31,2.21,20.83,5.15,28.4-3.94,1.7-2.04,2.68-4.3,3-6.94.26-2.19-.48-4.34-.3-6.49.34-3.99,1.76-4.34,2.79-7.38.74-2.18.16-2.51-.15-4.6-.4-2.79-2.54.88.22-3.1.68-.98,2.23-1.38,2.96-2.45,1.24-1.81,1.3-3.57,1.07-5.69-.34-3.17-2.11-5.31,1.42-8.46.77-.69,2.51-1.03,3.43-1.45,4.47-2.05,6.82-5.09,5.51-10.17-1.49-5.77-6.61-9.6-10.46-13.74-3.55-3.81-5.78-7.55-5.4-12.99.38-5.42,2.83-10.59,3.88-15.9,2.87-14.64.17-30.28-7.44-43.1-7.38-12.44-19.3-23.7-32.34-30.04-3-1.46-7.67-4.51-10.67-1.43-4.3,4.41-1.67,15.68-1.05,20.86,1.65,13.68,4.07,27.26,6.14,40.87,5.59,36.81,10.21,74.64,5.94,111.83,0,.04,0,.07-.02.1-3.57-.77-7.16-1.29-10.8-.89-6.59.72-12.23,4.39-16.34,9.48-5.07,6.29-7.2,14.18-8.08,22.08-.95,8.55-1.95,18.57,2.35,26.36,1.18,2.14,4.45.23,3.27-1.91-4.53-8.19-2.86-21.8-.81-30.6,2.17-9.34,7.94-19.14,18.01-21.35,3.74-.82,7.81-.43,11.96.33-2.43,18.33-7.45,36.78-17.67,52.34-11.34,17.28-28.67,28.27-48.61,33.01H9.54V3.86h186.79v275.51ZM5.75.08v283.08h194.36V.08H5.75"/>
    </g>
    <g class="cls-3">
      <g>
        <path class="cls-2" d="M18.99,347.09l-12.46-39.37h3.9l11.62,36.74,11.58-36.74h1.54l-12.29,39.37h-3.88Z"/>
        <path class="cls-2" d="M50.52,347.09l12.07-39.33v-.04h3.9l12.11,39.37h-3.88l-3.08-10.1h-16.46l-3.12,10.1h-1.54ZM55.63,335.51h15.52l-7.74-25.23-7.78,25.23Z"/>
        <path class="cls-2" d="M94.02,347.09v-39.37h3.74v37.89h19.62v1.48h-23.36Z"/>
        <path class="cls-2" d="M132.74,347.09v-39.37h22.27v1.48h-18.53v17.22h14.86v1.48h-14.86v17.71h19.68v1.48h-23.42Z"/>
        <path class="cls-2" d="M171.52,347.09l12.07-39.33v-.04h3.9l12.11,39.37h-3.88l-3.08-10.1h-16.46l-3.12,10.1h-1.54ZM176.63,335.51h15.52l-7.74-25.23-7.78,25.23Z"/>
      </g>
    </g>
    <g>
      <path class="cls-2" d="M10.55,375l-3.76-9.84h-.06c.07.79.1,1.72.1,2.78v7.06h-1.18v-11.09h1.94l3.51,9.15h.06l3.53-9.15h1.94v11.09h-1.29v-7.15c0-.82.03-1.7.1-2.67h-.06l-3.8,9.82h-1.04Z"/>
      <path class="cls-2" d="M29,375h-6.19v-11.09h6.19v1.14h-4.9v3.57h4.59v1.14h-4.59v4.08h4.9v1.14Z"/>
      <path class="cls-2" d="M43.42,369.35c0,1.84-.5,3.24-1.49,4.21-1,.97-2.42,1.45-4.29,1.45h-3.06v-11.09h3.39c1.73,0,3.07.48,4.02,1.43.95.95,1.43,2.29,1.43,4ZM42.05,369.39c0-1.44-.36-2.53-1.08-3.27-.72-.74-1.8-1.1-3.23-1.1h-1.88v8.86h1.57c1.54,0,2.68-.37,3.45-1.12.78-.76,1.16-1.88,1.16-3.37Z"/>
      <path class="cls-2" d="M49.04,375v-11.09h1.29v11.09h-1.29Z"/>
      <path class="cls-2" d="M61.23,364.89c-1.21,0-2.17.41-2.88,1.23-.71.82-1.06,1.93-1.06,3.33s.34,2.58,1.02,3.37c.68.79,1.65,1.18,2.92,1.18.76,0,1.64-.13,2.63-.41v1.12c-.77.29-1.71.43-2.84.43-1.63,0-2.9-.49-3.8-1.47-.89-.99-1.33-2.4-1.33-4.23,0-1.14.21-2.14.63-3,.43-.87,1.05-1.54,1.86-2,.82-.46,1.77-.69,2.86-.69,1.17,0,2.18.21,3.04.63l-.53,1.1c-.85-.39-1.69-.59-2.53-.59Z"/>
      <path class="cls-2" d="M69.43,375v-11.09h1.29v11.09h-1.29Z"/>
      <path class="cls-2" d="M85.54,375h-1.47l-6.06-9.31h-.06c.08,1.09.12,2.09.12,3v6.31h-1.18v-11.09h1.45l6.04,9.27h.06c-.02-.13-.04-.57-.08-1.31-.03-.75-.04-1.28-.02-1.59v-6.37h1.2v11.09Z"/>
      <path class="cls-2" d="M98.69,375l-1.37-3.53h-4.45l-1.37,3.53h-1.31l4.39-11.13h1.08l4.37,11.13h-1.35ZM96.91,370.31l-1.29-3.43c-.18-.43-.36-.96-.53-1.59-.11.48-.27,1.01-.47,1.59l-1.31,3.43h3.59Z"/>
      <path class="cls-2" d="M118.04,375h-6.19v-11.09h6.19v1.14h-4.9v3.57h4.59v1.14h-4.59v4.08h4.9v1.14Z"/>
      <path class="cls-2" d="M129.87,372.04c0,.98-.36,1.75-1.06,2.29-.71.55-1.67.82-2.88.82-1.32,0-2.34-.16-3.04-.49v-1.25c.46.19.96.34,1.49.45.54.11,1.07.16,1.59.16.86,0,1.5-.16,1.94-.49.43-.33.65-.78.65-1.37,0-.38-.08-.69-.22-.94-.15-.25-.41-.47-.78-.67-.36-.2-.91-.44-1.65-.71-1.04-.37-1.78-.8-2.23-1.31-.44-.5-.65-1.16-.65-1.98,0-.86.32-1.54.96-2.04.65-.5,1.5-.76,2.55-.76s2.11.2,3.04.61l-.39,1.12c-.91-.39-1.81-.59-2.67-.59-.68,0-1.22.15-1.61.45-.38.3-.57.71-.57,1.23,0,.38.07.69.2.94.15.25.39.47.74.67.34.2.85.43,1.53.67,1.17.42,1.97.87,2.41,1.35.43.48.65,1.09.65,1.84Z"/>
      <path class="cls-2" d="M138.69,375h-1.29v-9.94h-3.51v-1.14h8.31v1.14h-3.51v9.94Z"/>
      <path class="cls-2" d="M153.19,375h-6.19v-11.09h6.19v1.14h-4.9v3.57h4.59v1.14h-4.59v4.08h4.9v1.14ZM148.92,362.83c.25-.31.5-.69.78-1.14.29-.45.51-.84.67-1.16h1.53v.16c-.22.33-.55.74-1,1.23-.44.48-.82.85-1.14,1.1h-.84v-.18Z"/>
      <path class="cls-2" d="M162.18,375h-1.29v-9.94h-3.51v-1.14h8.31v1.14h-3.51v9.94Z"/>
      <path class="cls-2" d="M170.49,375v-11.09h1.29v11.09h-1.29Z"/>
      <path class="cls-2" d="M182.69,364.89c-1.21,0-2.17.41-2.88,1.23-.71.82-1.06,1.93-1.06,3.33s.34,2.58,1.02,3.37c.68.79,1.65,1.18,2.92,1.18.76,0,1.64-.13,2.63-.41v1.12c-.77.29-1.71.43-2.84.43-1.63,0-2.9-.49-3.8-1.47-.89-.99-1.33-2.4-1.33-4.23,0-1.14.21-2.14.63-3,.43-.87,1.05-1.54,1.86-2,.82-.46,1.77-.69,2.86-.69,1.17,0,2.18.21,3.04.63l-.53,1.1c-.85-.39-1.69-.59-2.53-.59Z"/>
      <path class="cls-2" d="M197.84,375l-1.37-3.53h-4.45l-1.37,3.53h-1.31l4.39-11.13h1.08l4.37,11.13h-1.35ZM196.07,370.31l-1.29-3.43c-.18-.43-.36-.96-.53-1.59-.11.48-.27,1.01-.47,1.59l-1.31,3.43h3.59Z"/>
    </g>
  </g>
</svg>